<svg xmlns="http://www.w3.org/2000/svg" version="1.1" xmlns:xlink="http://www.w3.org/1999/xlink" xmlns:svgjs="http://svgjs.dev/svgjs" width="1500" height="1500" viewBox="0 0 1500 1500"><g transform="matrix(1,0,0,1,-0.323615160350073,-0.3236151603499593)"><svg viewBox="0 0 343 343" data-background-color="#ffffff" preserveAspectRatio="xMidYMid meet" height="1500" width="1500" xmlns="http://www.w3.org/2000/svg" xmlns:xlink="http://www.w3.org/1999/xlink"><g id="tight-bounds" transform="matrix(1,0,0,1,0.0740000000000407,0.07400000000001228)"><svg viewBox="0 0 342.85155851775386 342.85155851775386" height="342.85155851775386" width="342.85155851775386"><g><svg></svg></g><g><svg viewBox="0 0 342.85155851775386 342.85155851775386" height="342.85155851775386" width="342.85155851775386"><g><path d="M0 171.426c0-94.676 76.75-171.426 171.426-171.426 94.676 0 171.426 76.75 171.426 171.426 0 94.676-76.75 171.426-171.426 171.426-94.676 0-171.426-76.75-171.426-171.426zM171.426 339.001c92.549 0 167.575-75.026 167.575-167.575 0-92.549-75.026-167.575-167.575-167.575-92.549 0-167.575 75.026-167.575 167.575 0 92.549 75.026 167.575 167.575 167.575z" data-fill-palette-color="tertiary" fill="#000000" stroke="transparent"></path><ellipse rx="164.56874808852186" ry="164.56874808852186" cx="171.42577925887693" cy="171.42577925887693" fill="#000000" stroke="transparent" stroke-width="0" fill-opacity="1" data-fill-palette-color="tertiary"></ellipse></g><g transform="matrix(1,0,0,1,64.84655864529837,150.07475321889657)"><svg viewBox="0 0 213.1584412271571 42.70205207996071" height="42.70205207996071" width="213.1584412271571"><g><svg viewBox="0 0 213.1584412271571 42.70205207996071" height="42.70205207996071" width="213.1584412271571"><g><svg viewBox="0 0 213.1584412271571 42.70205207996071" height="42.70205207996071" width="213.1584412271571"><g id="textblocktransform"><svg viewBox="0 0 213.1584412271571 42.70205207996071" height="42.70205207996071" width="213.1584412271571" id="textblock"><g><svg viewBox="0 0 213.1584412271571 42.70205207996071" height="42.70205207996071" width="213.1584412271571"><g transform="matrix(1,0,0,1,0,0)"><svg width="213.1584412271571" viewBox="0.35 -37.7 242.33 48.550000000000004" height="42.70205207996071" data-palette-color="#ffffff"><path d="M11.75-35.25Q14.75-35.25 17.05-34.2 19.35-33.15 21.3-31.05L21.3-31.05 18.35-27.65Q16.8-29.05 15.33-29.75 13.85-30.45 12.2-30.45L12.2-30.45Q10.3-30.45 9.2-29.28 8.1-28.1 8.1-26.2L8.1-26.2Q8.1-24.3 9.25-23.1 10.4-21.9 13.75-20.6L13.75-20.6Q18.05-18.85 20.08-16.5 22.1-14.15 22.1-9.85L22.1-9.85Q22.1-6.9 20.75-4.48 19.4-2.05 16.88-0.65 14.35 0.75 11 0.75L11 0.75Q7.55 0.75 5-0.48 2.45-1.7 0.35-3.95L0.35-3.95 3.55-7.45Q5.35-5.85 7-5 8.65-4.15 10.6-4.15L10.6-4.15Q12.9-4.15 14.18-5.58 15.45-7 15.45-9.45L15.45-9.45Q15.45-11.6 14.33-12.98 13.2-14.35 10.15-15.5L10.15-15.5Q5.55-17.35 3.53-19.75 1.5-22.15 1.5-25.75L1.5-25.75Q1.5-28.5 2.83-30.65 4.15-32.8 6.5-34.02 8.85-35.25 11.75-35.25L11.75-35.25ZM37.25-5L39.4-1.2Q36.95 0.75 33.65 0.75L33.65 0.75Q30.2 0.75 28.4-1.23 26.6-3.2 26.6-6.6L26.6-6.6 26.6-22 23.5-22 23.5-26.45 26.6-26.45 26.6-32.3 32.75-33.05 32.75-26.45 37.75-26.45 37.15-22 32.75-22 32.75-6.6Q32.75-4.2 34.8-4.2L34.8-4.2Q35.45-4.2 35.95-4.38 36.45-4.55 37.25-5L37.25-5ZM60.09-26.45L60.09 0 54.74 0 54.45-3.35Q53.2-1.3 51.64-0.28 50.09 0.75 48.05 0.75L48.05 0.75Q45.14 0.75 43.47-1.3 41.8-3.35 41.8-6.65L41.8-6.65 41.8-26.45 47.95-26.45 47.95-7Q47.95-3.9 50.05-3.9L50.05-3.9Q51.24-3.9 52.2-4.83 53.14-5.75 53.95-7.45L53.95-7.45 53.95-26.45 60.09-26.45ZM78.74-37.7L84.89-37.05 84.89 0 79.44 0 79.14-3.05Q76.79 0.75 73.09 0.75L73.09 0.75Q68.99 0.75 66.82-2.93 64.64-6.6 64.64-13.2L64.64-13.2Q64.64-17.4 65.77-20.58 66.89-23.75 68.89-25.45 70.89-27.15 73.49-27.15L73.49-27.15Q76.69-27.15 78.74-24.5L78.74-24.5 78.74-37.7ZM74.84-3.9Q75.99-3.9 76.92-4.7 77.84-5.5 78.74-7L78.74-7 78.74-19.85Q77.14-22.55 75.09-22.55L75.09-22.55Q71.04-22.55 71.04-13.25L71.04-13.25Q71.04-8.2 72.04-6.05 73.04-3.9 74.84-3.9L74.84-3.9ZM109.24-26.45L102.24 0.1Q100.94 4.9 98.04 7.65 95.14 10.4 90.29 10.85L90.29 10.85 89.59 6.5Q92.74 5.85 94.32 4.42 95.89 3 96.79 0L96.79 0 94.49 0 87.79-26.45 94.04-26.45 98.44-4.1 103.14-26.45 109.24-26.45ZM121.04-35.25Q124.04-35.25 126.34-34.2 128.64-33.15 130.59-31.05L130.59-31.05 127.64-27.65Q126.09-29.05 124.61-29.75 123.14-30.45 121.49-30.45L121.49-30.45Q119.59-30.45 118.49-29.28 117.39-28.1 117.39-26.2L117.39-26.2Q117.39-24.3 118.54-23.1 119.69-21.9 123.04-20.6L123.04-20.6Q127.34-18.85 129.36-16.5 131.39-14.15 131.39-9.85L131.39-9.85Q131.39-6.9 130.04-4.48 128.69-2.05 126.16-0.65 123.64 0.75 120.29 0.75L120.29 0.75Q116.84 0.75 114.29-0.48 111.74-1.7 109.64-3.95L109.64-3.95 112.84-7.45Q114.64-5.85 116.29-5 117.94-4.15 119.89-4.15L119.89-4.15Q122.19-4.15 123.46-5.58 124.74-7 124.74-9.45L124.74-9.45Q124.74-11.6 123.61-12.98 122.49-14.35 119.44-15.5L119.44-15.5Q114.84-17.35 112.81-19.75 110.79-22.15 110.79-25.75L110.79-25.75Q110.79-28.5 112.11-30.65 113.44-32.8 115.79-34.02 118.14-35.25 121.04-35.25L121.04-35.25ZM147.59-27.15Q151.49-27.15 153.49-23.58 155.49-20 155.49-13.3L155.49-13.3Q155.49-6.8 153.21-3.03 150.94 0.75 146.89 0.75L146.89 0.75Q143.69 0.75 141.54-2.1L141.54-2.1 141.54 10.15 135.39 10.85 135.39-26.45 140.84-26.45 141.09-23.25Q142.39-25.25 143.99-26.2 145.59-27.15 147.59-27.15L147.59-27.15ZM145.24-3.95Q147.14-3.95 148.14-6.13 149.14-8.3 149.14-13.25L149.14-13.25Q149.14-18.45 148.29-20.5 147.44-22.55 145.64-22.55L145.64-22.55Q143.34-22.55 141.54-19.25L141.54-19.25 141.54-6.45Q143.14-3.95 145.24-3.95L145.24-3.95ZM172.43-27.15Q175.28-27.15 176.93-25.1 178.58-23.05 178.58-19.6L178.58-19.6 178.58 0 172.43 0 172.43-18.9Q172.43-20.8 171.91-21.63 171.38-22.45 170.38-22.45L170.38-22.45Q168.28-22.45 166.23-18.5L166.23-18.5 166.23 0 160.08 0 160.08-37 166.23-37.65 166.23-23.3Q167.48-25.25 168.96-26.2 170.43-27.15 172.43-27.15L172.43-27.15ZM202.98-13.85Q202.98-13.4 202.83-11.3L202.83-11.3 189.18-11.3Q189.38-7.2 190.61-5.58 191.83-3.95 194.08-3.95L194.08-3.95Q195.63-3.95 196.88-4.48 198.13-5 199.58-6.15L199.58-6.15 202.13-2.65Q198.63 0.75 193.73 0.75L193.73 0.75Q188.53 0.75 185.76-2.85 182.98-6.45 182.98-13L182.98-13Q182.98-19.55 185.63-23.35 188.28-27.15 193.13-27.15L193.13-27.15Q197.78-27.15 200.38-23.78 202.98-20.4 202.98-13.85L202.98-13.85ZM196.98-15.3L196.98-15.65Q196.98-19.4 196.08-21.13 195.18-22.85 193.18-22.85L193.18-22.85Q191.33-22.85 190.36-21.18 189.38-19.5 189.18-15.3L189.18-15.3 196.98-15.3ZM218.93-27.1Q220.08-27.1 220.98-26.75L220.98-26.75 219.98-20.85Q218.98-21.1 218.13-21.1L218.13-21.1Q216.23-21.1 215.13-19.45 214.03-17.8 213.43-14.55L213.43-14.55 213.43 0 207.28 0 207.28-26.45 212.63-26.45 213.08-21.85Q214.93-27.1 218.93-27.1L218.93-27.1ZM242.68-13.85Q242.68-13.4 242.53-11.3L242.53-11.3 228.88-11.3Q229.08-7.2 230.3-5.58 231.53-3.95 233.78-3.95L233.78-3.95Q235.33-3.95 236.58-4.48 237.83-5 239.28-6.15L239.28-6.15 241.83-2.65Q238.33 0.75 233.43 0.75L233.43 0.75Q228.23 0.75 225.45-2.85 222.68-6.45 222.68-13L222.68-13Q222.68-19.55 225.33-23.35 227.98-27.15 232.83-27.15L232.83-27.15Q237.48-27.15 240.08-23.78 242.68-20.4 242.68-13.85L242.68-13.85ZM236.68-15.3L236.68-15.65Q236.68-19.4 235.78-21.13 234.88-22.85 232.88-22.85L232.88-22.85Q231.03-22.85 230.05-21.18 229.08-19.5 228.88-15.3L228.88-15.3 236.68-15.3Z" opacity="1" transform="matrix(1,0,0,1,0,0)" fill="#ffffff" class="wordmark-text-0" data-fill-palette-color="quaternary" id="text-0"></path></svg></g></svg></g></svg></g></svg></g><g></g></svg></g></svg></g></svg></g><defs></defs></svg><rect width="342.85155851775386" height="342.85155851775386" fill="none" stroke="none" visibility="hidden"></rect></g></svg></g></svg>